<?xml version="1.0" encoding="utf-8"?>
<!-- Generator: Adobe Illustrator 23.0.3, SVG Export Plug-In . SVG Version: 6.00 Build 0)  -->
<svg version="1.1" id="Layer_1" xmlns="http://www.w3.org/2000/svg" xmlns:xlink="http://www.w3.org/1999/xlink" x="0px" y="0px"
	 viewBox="0 0 387.9 387.9" style="enable-background:new 0 0 387.9 387.9;" xml:space="preserve">
<style type="text/css">
	.st0{fill:url(#SVGID_1_);}
	.st1{fill:url(#SVGID_2_);}
	.st2{fill:url(#SVGID_3_);}
	.st3{fill:url(#SVGID_4_);}
	.st4{fill:url(#SVGID_5_);}
	.st5{fill:url(#SVGID_6_);}
	.st6{fill:url(#SVGID_7_);}
	.st7{fill:url(#SVGID_8_);}
	.st8{fill:url(#SVGID_9_);}
	.st9{fill:url(#SVGID_10_);}
	.st10{fill:url(#SVGID_11_);}
	.st11{fill:url(#SVGID_12_);}
	.st12{fill:url(#SVGID_13_);}
	.st13{fill:url(#SVGID_14_);}
	.st14{fill:url(#SVGID_15_);}
	.st15{fill:url(#SVGID_16_);}
	.st16{fill:url(#SVGID_17_);}
	.st17{fill:url(#SVGID_18_);}
	.st18{fill:url(#SVGID_19_);}
	.st19{fill:url(#SVGID_20_);}
	.st20{fill:url(#SVGID_21_);}
	.st21{fill:url(#SVGID_22_);}
	.st22{fill:url(#SVGID_23_);}
	.st23{fill:url(#SVGID_24_);}
	.st24{fill:url(#SVGID_25_);}
	.st25{fill:url(#SVGID_26_);}
	.st26{fill:url(#SVGID_27_);}
	.st27{fill:url(#SVGID_28_);}
	.st28{fill:url(#SVGID_29_);}
	.st29{fill:url(#SVGID_30_);}
	.st30{fill:url(#SVGID_31_);}
	.st31{fill:url(#SVGID_32_);}
	.st32{fill:url(#SVGID_33_);}
	.st33{fill:url(#SVGID_34_);}
	.st34{fill:url(#SVGID_35_);}
	.st35{fill:url(#SVGID_36_);}
	.st36{fill:url(#SVGID_37_);}
	.st37{fill:url(#SVGID_38_);}
	.st38{fill:url(#SVGID_39_);}
	.st39{fill:url(#SVGID_40_);}
	.st40{fill:url(#SVGID_41_);}
	.st41{fill:url(#SVGID_42_);}
	.st42{fill:url(#SVGID_43_);}
	.st43{fill:url(#SVGID_44_);}
	.st44{fill:url(#SVGID_45_);}
	.st45{fill:url(#SVGID_46_);}
	.st46{fill:url(#SVGID_47_);}
	.st47{fill:url(#SVGID_48_);}
	.st48{fill:url(#SVGID_49_);}
	.st49{fill:url(#SVGID_50_);}
	.st50{fill:url(#SVGID_51_);}
	.st51{fill:url(#SVGID_52_);}
	.st52{fill:url(#SVGID_53_);}
	.st53{fill:url(#SVGID_54_);}
	.st54{fill:url(#SVGID_55_);}
	.st55{fill:url(#SVGID_56_);}
	.st56{fill:url(#SVGID_57_);}
	.st57{fill:url(#SVGID_58_);}
	.st58{fill:url(#SVGID_59_);}
	.st59{fill:url(#SVGID_60_);}
	.st60{fill:url(#SVGID_61_);}
	.st61{fill:url(#SVGID_62_);}
	.st62{fill:url(#SVGID_63_);}
	.st63{fill:url(#SVGID_64_);}
	.st64{fill:url(#SVGID_65_);}
	.st65{fill:url(#SVGID_66_);}
	.st66{fill:url(#SVGID_67_);}
	.st67{fill:url(#SVGID_68_);}
	.st68{fill:url(#SVGID_69_);}
	.st69{fill:url(#SVGID_70_);}
	.st70{fill:url(#SVGID_71_);}
	.st71{fill:url(#SVGID_72_);}
	.st72{fill:url(#SVGID_73_);}
	.st73{fill:url(#SVGID_74_);}
	.st74{fill:url(#SVGID_75_);}
	.st75{fill:url(#SVGID_76_);}
	.st76{fill:url(#SVGID_77_);}
	.st77{fill:url(#SVGID_78_);}
	.st78{fill:url(#SVGID_79_);}
	.st79{fill:url(#SVGID_80_);}
	.st80{fill:url(#SVGID_81_);}
	.st81{fill:url(#SVGID_82_);}
	.st82{fill:url(#SVGID_83_);}
	.st83{fill:url(#SVGID_84_);}
	.st84{fill:url(#SVGID_85_);}
	.st85{fill:url(#SVGID_86_);}
	.st86{fill:url(#SVGID_87_);}
	.st87{fill:url(#SVGID_88_);}
	.st88{fill:url(#SVGID_89_);}
	.st89{fill:url(#SVGID_90_);}
	.st90{fill:url(#SVGID_91_);}
	.st91{fill:url(#SVGID_92_);}
	.st92{fill:url(#SVGID_93_);}
	.st93{fill:url(#SVGID_94_);}
	.st94{fill:url(#SVGID_95_);}
	.st95{fill:url(#SVGID_96_);}
	.st96{fill:url(#SVGID_97_);}
	.st97{fill:url(#SVGID_98_);}
	.st98{fill:url(#SVGID_99_);}
	.st99{fill:url(#SVGID_100_);}
	.st100{fill:url(#SVGID_101_);}
	.st101{fill:url(#SVGID_102_);}
	.st102{fill:url(#SVGID_103_);}
	.st103{fill:url(#SVGID_104_);}
	.st104{fill:url(#SVGID_105_);}
	.st105{fill:url(#SVGID_106_);}
	.st106{fill:url(#SVGID_107_);}
	.st107{fill:url(#SVGID_108_);}
	.st108{fill:url(#SVGID_109_);}
	.st109{fill:url(#SVGID_110_);}
	.st110{fill:url(#SVGID_111_);}
	.st111{fill:url(#SVGID_112_);}
	.st112{fill:url(#SVGID_113_);}
	.st113{fill:url(#SVGID_114_);}
	.st114{fill:url(#SVGID_115_);}
	.st115{fill:url(#SVGID_116_);}
	.st116{fill:url(#SVGID_117_);}
	.st117{fill:url(#SVGID_118_);}
	.st118{fill:url(#SVGID_119_);}
	.st119{fill:url(#SVGID_120_);}
	.st120{fill:url(#SVGID_121_);}
	.st121{fill:url(#SVGID_122_);}
	.st122{fill:url(#SVGID_123_);}
	.st123{fill:url(#SVGID_124_);}
	.st124{fill:url(#SVGID_125_);}
	.st125{fill:url(#SVGID_126_);}
	.st126{fill:url(#SVGID_127_);}
	.st127{fill:url(#SVGID_128_);}
	.st128{fill:url(#SVGID_129_);}
	.st129{fill:url(#SVGID_130_);}
	.st130{fill:url(#SVGID_131_);}
	.st131{fill:url(#SVGID_132_);}
	.st132{fill:url(#SVGID_133_);}
	.st133{fill:url(#SVGID_134_);}
	.st134{fill:url(#SVGID_135_);}
	.st135{fill:url(#SVGID_136_);}
	.st136{fill:url(#SVGID_137_);}
	.st137{fill:url(#SVGID_138_);}
	.st138{fill:url(#SVGID_139_);}
	.st139{fill:url(#SVGID_140_);}
	.st140{fill:url(#SVGID_141_);}
	.st141{fill:url(#SVGID_142_);}
	.st142{fill:url(#SVGID_143_);}
	.st143{fill:url(#SVGID_144_);}
	.st144{fill:url(#SVGID_145_);}
	.st145{fill:url(#SVGID_146_);}
	.st146{fill:url(#SVGID_147_);}
	.st147{fill:url(#SVGID_148_);}
	.st148{fill:url(#SVGID_149_);}
	.st149{fill:url(#SVGID_150_);}
	.st150{fill:url(#SVGID_151_);}
	.st151{fill:url(#SVGID_152_);}
	.st152{fill:url(#SVGID_153_);}
	.st153{fill:url(#SVGID_154_);}
	.st154{fill:url(#SVGID_155_);}
	.st155{fill:url(#SVGID_156_);}
	.st156{fill:url(#SVGID_157_);}
	.st157{fill:url(#SVGID_158_);}
	.st158{fill:url(#SVGID_159_);}
	.st159{fill:url(#SVGID_160_);}
	.st160{fill:url(#SVGID_161_);}
	.st161{fill:url(#SVGID_162_);}
	.st162{fill:url(#SVGID_163_);}
	.st163{fill:url(#SVGID_164_);}
	.st164{fill:url(#SVGID_165_);}
	.st165{fill:url(#SVGID_166_);}
	.st166{fill:url(#SVGID_167_);}
	.st167{fill:url(#SVGID_168_);}
	.st168{fill:url(#SVGID_169_);}
	.st169{fill:url(#SVGID_170_);}
</style>
<g>
	<path d="M193.4,86.4c-3.3-0.1-6.4-1.6-9.3,2.4c-9.4,12.8-25.9,10.1-39,18.4c0.9-6.9,4.6-9.4,8.6-11.6c9.9-5.5,18.9-13,31-13.3
		C188.4,81.9,191.7,82.6,193.4,86.4z"/>
	<g>
		<path d="M198.6,60.5c-76.2-1-137.2,56.8-138.1,130.8c-0.9,74.1,57.7,135.1,130.8,136.1c74.6,1,134.9-57.6,136.1-132
			C328.5,123.4,269.3,61.4,198.6,60.5z M236.2,156.1c1.7,8.3-1.2,11.2-9,11.1c-6.3-0.2-13-2.8-19.3,2.5c-1.4,1.2-10.8-3.1-11.2-5.8
			c-1.4-8.5-6.6-5.7-11.2-5.5c-5.3,0.3-10.6,1-16.2,1.5c9.1-7.6,14.4-23.3,30.4-12.6c4.9-1.4,7.8,2.2,11.2,4.5
			C220.6,147.6,226.7,161.1,236.2,156.1z M226.9,306.9c-46.5,13.5-87.1,0.9-120.8-33.9c-8.1-8.4-2.6-18.1-0.9-25.4
			c2-8.8,0.8-14.8-5.3-18.8c-14-9.1-14.4-24.9-19.5-38c-8.3-21.7,3.1-40.3,13.1-58.5c3.3-6.1,8.9-10.8,16.3-11.2
			c3.2-0.2,4.5-1.1,5.4-3.8c0.4-1.3,1.7-3.6,2-3.5c15.7,4.2,13.1-12.3,21.1-17.5c-4.9-2-7.1,2.4-11.7,2.7c5.1-6,10.3-10.5,17.8-10.1
			c6.7,0.4,9.5-5.9,15.1-7.5c8.7-2.6,17-6.2,25.2,0.8c0.7,1.7-0.1,3.3-1.5,3.4c-11.8,0.5-20.4,8.1-29.1,13.8
			c10-1.2,19.7-4.5,27.9-11.9c3.3-2.9,7.2-5,11.4-1.2c6.6,1.1,12.5-0.5,18.7-3.4c7.3-3.5,12.1,1.7,15.3,7.7
			c2.9,5.6-0.9,9.5-5.2,11.5c-3.9,1.9-8.2-0.8-12.3-1.8c-8.3-2-20.6,10.5-18.5,18.8c1.6,2.2,1.4,4.4,0,6.6c-2.9,1.3-5.8,2.7-8.7,4.1
			c-0.4-0.2-0.8-0.5-1.2-0.7c-2.5-1.5-1.8-5.7-5.4-6.1c-2.7,3.9,2.5,7.6,0,11.4c1.4,6.1,2.9,11.5-7.3,9.2c-6.9-1.6-6.7,6.3-5.9,8.8
			c3.2,10.7-4.5,15.1-10.6,19.8c-7.9,6-15.5,25.5-12.2,34.2c6.5,16.8,13.9,21,31.7,17.7c5.8-1.1,11.4-1.5,16.8,1.7
			c1.8,1.1,5.2,2.4,4.5,4c-4,9.5,4.4,15.1,6.4,22.6c0.7,2.8,2,6.6,0.7,8.4c-5.8,8.7,0.8,15.8,3,23c1.2,4,3.5,12.1,8.1,11.1
			c8.4-1.9,17.9-2.3,24.4-10c5.9-7.1,5.2-18.8,15.9-22.4c2.8-21.5,19.7-37.9,22.5-59.7c-5.9-0.3-9.4,5.1-15,2.4
			c5.1-4.8,10.5-8.9,14.5-14c4-5.1,9.3-10.8,2.7-17.9c-7.3,1.1-14.1,1.1-17-9.2c7,4.7,13.8,6.4,21.2,5.1c9.1-5.1,12.5,3.1,16.3,7.9
			c3.6,4.6,5.2,10.7,8.8,18.7c2.5-13.3-3.3-23.7,0.6-36.7c6.7,19.4,7.3,37,4.1,54.1C301.2,260.8,273.5,293.3,226.9,306.9z"/>
		<path d="M255.3,272c-0.6,1.9-1,3.8,0.7,4.9c1.9,1.2,3.4-0.5,4.4-1.9c4.4-6.1,6.8-13.1,10.3-22.6
			C262.6,259.3,257.6,264.6,255.3,272z"/>
		<path d="M280.5,169.2c-0.3,0.3-0.5,0.5-0.8,0.8C280.1,169.8,280.3,169.6,280.5,169.2z"/>
	</g>
</g>
</svg>
